# xmcd CD database file
#
# Track frame offsets:
#	150
#	23006
#	42203
#	59676
#	78279
#	96800
#	116708
#	135315
#	154043
#	172431
#	192016
#	206726
#	227496
#	246532
#	264142
#	280492
#	303525
#
# Disc length: 4326 seconds
#
# Revision: 10
# Processed by: cddbd v1.5.1PL0 Copyright (c) Steve Scherf et al.
# Submitted via: CDex 1.51
#
DISCID=ed10e411
DTITLE=Zezé Di Camargo and Luciano - Pra Não Pensar em Você
DYEAR=1999
DGENRE=Country
TTITLE0=Pra Não Pensar Em Você
TTITLE1=Flor De Flamboyant
TTITLE2=Imperfeito
TTITLE3=Dois Corações Uma História
TTITLE4=Pior Te Perder
TTITLE5=Amores Que Vem e Que Passam
TTITLE6=Volta Pro Meu Coração
TTITLE7=Quando a Cabeça Não Pensa
TTITLE8=Seca Malvada
TTITLE9=Á Queima Roupa
TTITLE10=Sabor de Pecado
TTITLE11=Meu País
TTITLE12=Fim de Festa
TTITLE13=A Mais Louca Paixão
TTITLE14=Vida, Viola e Violeiro
TTITLE15=Deus Salve a América
TTITLE16=Felicidade, Que Saudade De Você
EXTD=YEAR: 1999
EXTT0=
EXTT1=
EXTT2=
EXTT3=
EXTT4=
EXTT5=
EXTT6=
EXTT7=
EXTT8=
EXTT9=
EXTT10=
EXTT11=
EXTT12=
EXTT13=
EXTT14=
EXTT15=
EXTT16=
PLAYORDER=
